<svg version="1" xmlns="http://www.w3.org/2000/svg" width="400" height="400" viewBox="0 0 300.000000 300.000000"><path d="M174.4 42.4c-5.4 2.4-6.8 7.7-4 14.6.4.9-.6 4.2-2.2 7.5S162 77.6 158 86.2c-7.3 15.7-7.4 15.8-10.6 15.8-1.8 0-4.4.5-5.8 1.1-2.4 1.1-8.5-1.4-51.3-20.8-4.5-2-5.3-2.8-5.3-5 0-5.2-3.8-11-8.6-13.3-13.7-6.7-26.9 7.4-19.9 21 3.9 7.5 14.9 10 21.7 4.8l3.5-2.6 25.4 11.4c20.3 9.1 25.3 11.7 25.1 13.1-.9 6.7-.8 9.2.3 11.9l1.3 3.1-14.3 14.3-14.4 14.3-5-2.1c-6-2.5-14.9-2.3-20.2.3-1.9 1-5.3 3.7-7.5 6.2l-4.2 4.4-20-9.1-20-9.1-.6-3.7c-2.6-15.3-24.9-13.3-24.9 2.2 0 9.9 10.6 15.8 19 10.6l3.3-2 20.4 9.3 20.3 9.2.6 6c.5 6.1 2.5 11.3 5.2 13.5.8.7 1.5 1.6 1.5 2.1 0 .8-18 27.9-20 30.2-.3.4-1.7.9-2.9 1.2-4.8.9-6.2 1.7-7.6 4.5-2.2 4.3-1.8 7.6 1.2 11 2.8 3.2 6.5 4 10.8 2.6 3.3-1 5.8-6.2 5.1-10.4-.5-3.3.2-4.8 8.6-17.2 12.4-18.3 10.7-16.9 17.5-15.5 7.5 1.5 14.7-.2 19.8-4.7 2-1.7 2.4-1.5 14 6.8l12 8.5.1 5.8c.1 7.5 2.9 12.2 9 15.1 8.1 4 17.9.7 21.7-7.2 1.7-3.6.7-3.1 23.7-10.2 6.3-1.9 16.5-5 22.5-6.9l11-3.4 2.3 2.8c5.8 7.1 16.4 9.8 24.1 6l4.3-2 6.2 5.7c15.7 14.7 18.5 17.7 18.9 20.8.6 4.3 2.7 7.2 6.2 8.8 7.2 3.5 15.5-1.7 15.5-9.5 0-8-6.8-13-14.5-10.6-3.5 1-3.7 1-9.3-4.4-3.1-3-8.4-8-11.6-11.1l-5.9-5.6 1.3-3.3c2.1-5 1.6-13-1.1-17.8-2.2-4.1-7.8-8.6-11.5-9.3-1.8-.3-1.9-1.6-2.2-31.5l-.2-31.2 3-1.6c3.8-2 5.8-5 6.4-9.9 1.3-10.7-9.2-18.8-19.1-14.7-2.9 1.2-3.2 1-21.4-13.5-10.1-8-19.2-15.2-20.1-15.8-1.1-.7-1.8-2.3-1.8-4.3 0-4.1-4.3-9.1-8.5-9.8-1.6-.3-4.4.1-6.1.9zm15.5 22.3c3.2 2.7 9.3 7.5 13.5 10.8 4.3 3.3 8.5 6.7 9.5 7.5 1 .8 4.1 3.3 6.9 5.5 4.4 3.5 5 4.5 5 7.6-.1 6.7 3 12.1 8 14l2.2.9v61.8l-3 1c-2.9 1.1-3.6.6-35.4-26.9-28.9-25.1-32.4-28.4-32.9-31.6-.3-1.9-1.8-5-3.2-6.8l-2.5-3.4 9.6-20.8c5.3-11.4 10.1-21.3 10.6-22 .5-.6 1.9-1.4 3.1-1.6 1.2-.2 2.3-.5 2.5-.6.2 0 2.9 2 6.1 4.6zm-25.1 65.4c1.5 1.1 4.3 3.5 6.2 5.2 3.5 3.3 25.3 22.1 40.9 35.5 4.7 4.1 9 7.7 9.4 8.2.5.4-.1 2.6-1.2 4.8-1.1 2.2-2.2 5.8-2.3 7.9-.3 3.5-.7 3.9-4.3 5.1-7.9 2.7-42.6 13.4-44.2 13.6-.7.1-1.6.5-1.9.9-1.7 1.7-4.1.4-6.2-3.3-3.9-6.9-12.1-9.5-19.6-6.1l-4.5 2-12.1-8.6c-12-8.4-12.1-8.5-11.3-11.7 1.4-5.4.9-13.9-1.1-18.3l-1.9-4.2 14.2-14.2 14.2-14.1 4.3 1.2c5.2 1.4 10.7.2 15.1-3.5 1.7-1.3 3.2-2.4 3.3-2.5.2 0 1.6.9 3 2.1z"/></svg>